<?xml version="1.0" standalone="no"?>
<!DOCTYPE svg PUBLIC "-//W3C//DTD SVG 20010904//EN"
 "http://www.w3.org/TR/2001/REC-SVG-20010904/DTD/svg10.dtd">
<svg version="1.0" xmlns="http://www.w3.org/2000/svg"
 width="1200.000000pt" height="1200.000000pt" viewBox="0 0 1200.000000 1200.000000"
 preserveAspectRatio="xMidYMid meet">
<metadata>
Created by potrace 1.16, written by Peter Selinger 2001-2019
</metadata>
<g transform="translate(0.000000,1200.000000) scale(0.100000,-0.100000)"
fill="#000000" stroke="none">
<path d="M4683 11993 c-12 -2 -36 -17 -53 -33 -23 -21 -30 -37 -30 -64 0 -35
1 -36 40 -36 37 0 40 2 40 29 0 50 16 55 198 55 147 1 168 -1 183 -17 9 -10
15 -29 13 -42 -2 -23 1 -25 37 -25 21 0 40 5 40 10 1 6 2 16 3 23 5 33 -18 67
-58 86 -38 19 -60 21 -217 20 -96 -1 -184 -4 -196 -6z"/>
<path d="M4325 11817 c-25 -21 -26 -27 -26 -127 0 -58 0 -110 0 -116 1 -8 46
-11 143 -10 136 1 142 2 148 22 22 86 166 161 300 157 125 -3 256 -78 275
-156 6 -24 7 -24 148 -23 l142 1 1 111 c0 66 -4 117 -10 126 -27 36 -45 37
-575 37 l-521 0 -25 -22z"/>
<path d="M4849 11681 c-10 -4 -15 -20 -14 -53 1 -27 -4 -49 -9 -50 -6 0 -36
-2 -66 -3 -30 -2 -63 -3 -72 -4 -12 -1 -18 -9 -18 -26 0 -28 -2 -27 93 -27 37
0 68 -4 68 -9 1 -5 2 -28 3 -51 l1 -43 42 -3 42 -3 3 53 3 53 71 1 c76 1 93 6
90 29 -4 25 -15 29 -89 30 l-72 0 -3 53 c-2 28 -6 52 -10 53 -40 5 -51 5 -63
0z"/>
<path d="M3819 11549 c-19 -17 -56 -50 -84 -74 -67 -58 -81 -70 -161 -141 -70
-63 -122 -108 -160 -141 -67 -57 -172 -152 -197 -177 -25 -25 -27 -31 -15 -40
9 -6 48 -40 88 -76 40 -36 82 -73 94 -83 12 -10 35 -31 51 -46 45 -41 59 -43
92 -13 16 15 55 50 87 77 32 28 68 59 80 70 12 11 53 47 91 80 37 33 88 78
113 100 51 45 55 49 142 125 35 30 77 68 94 84 l30 29 -46 41 c-24 23 -74 67
-110 99 -37 32 -81 71 -100 87 -18 16 -38 30 -44 30 -6 0 -26 -14 -45 -31z
m147 -106 c38 -34 84 -74 102 -90 l33 -29 -27 -23 -26 -23 -26 24 c-15 13 -28
26 -30 31 -6 12 -52 8 -49 -5 1 -7 17 -26 35 -42 38 -34 39 -41 8 -62 -24 -15
-26 -14 -58 14 -83 76 -104 92 -120 92 -33 0 -18 -26 43 -81 34 -30 67 -57 73
-61 7 -4 4 -14 -8 -27 -24 -27 -25 -27 -63 9 -18 17 -39 30 -47 30 -30 0 -26
-20 11 -55 l37 -35 -21 -22 c-25 -25 -32 -22 -118 56 -49 45 -85 59 -85 33 0
-11 98 -106 134 -129 7 -5 4 -15 -11 -29 l-22 -22 -36 31 c-61 54 -100 34 -40
-20 41 -38 43 -48 14 -66 -24 -16 -36 -9 -114 62 -49 45 -85 59 -85 33 0 -11
98 -106 134 -129 7 -4 4 -14 -8 -27 -24 -27 -25 -27 -64 9 -18 17 -39 30 -47
30 -29 0 -24 -21 11 -54 37 -35 37 -36 19 -56 -10 -11 -24 -19 -30 -18 -13 3
-92 70 -179 150 l-51 48 36 32 c37 34 145 130 189 168 14 12 54 47 89 78 35
31 73 65 85 75 12 10 50 44 85 75 132 117 124 111 141 99 9 -7 48 -40 86 -74z"/>
<path d="M4299 11486 c-3 -173 -2 -188 20 -210 21 -21 25 -21 547 -24 477 -2
528 0 554 15 35 21 36 24 36 153 l-1 105 -141 2 -141 1 -12 -34 c-17 -46 -82
-99 -153 -123 -85 -29 -213 -24 -289 11 -67 30 -104 64 -124 110 l-14 36 -141
-1 -140 0 -1 -41z"/>
<path d="M8318 11175 c-2 -2 -18 -5 -36 -8 -92 -15 -195 -98 -240 -194 -23
-49 -27 -71 -27 -143 1 -72 5 -95 29 -147 34 -75 94 -134 174 -171 48 -23 71
-27 142 -27 71 0 94 4 140 26 132 62 209 187 205 329 -7 184 -148 327 -332
335 -28 2 -53 1 -55 0z m181 -172 c14 -28 11 -321 -4 -333 -30 -25 -97 -15
-109 15 -8 22 5 54 25 60 19 6 21 10 21 45 0 49 -1 50 -34 45 -93 -15 -88 -11
-89 -73 -1 -31 0 -65 1 -75 3 -29 -29 -57 -65 -57 -56 0 -78 49 -38 86 25 23
27 29 28 130 1 99 2 108 24 125 13 11 32 19 42 19 10 0 20 0 22 1 1 0 26 6 56
13 84 19 109 18 120 -1z"/>
<path d="M6630 10967 c0 -17 -47 -40 -55 -27 -8 13 -16 12 -39 -5 -14 -11 -16
-18 -8 -27 7 -9 7 -19 -1 -35 -11 -21 -15 -23 -36 -23 -5 0 -8 -8 -6 -17 2
-10 4 -21 4 -25 1 -5 8 -8 16 -8 21 0 37 -34 22 -49 -16 -16 19 -44 45 -35 24
7 58 -4 55 -19 -1 -7 12 -13 31 -15 22 -2 32 1 30 9 -4 18 54 38 60 21 3 -10
8 -9 23 4 13 11 16 24 12 45 -4 24 -1 30 21 40 18 8 24 18 22 33 -2 12 -8 21
-14 21 -7 0 -19 10 -27 23 -9 12 -11 22 -6 22 16 0 13 19 -4 36 -10 11 -20 12
-32 5 -20 -10 -70 10 -65 26 1 4 -9 9 -23 11 -16 2 -25 -2 -25 -11z m88 -90
c28 -26 29 -70 0 -97 -12 -11 -24 -20 -27 -21 -3 0 -14 -2 -24 -4 -58 -11
-112 50 -88 101 13 29 64 54 95 46 12 -2 31 -14 44 -25z"/>
<path d="M2220 10448 c-16 -9 -32 -29 -36 -44 -4 -15 -7 -200 -8 -410 0 -378
-1 -384 -21 -385 -11 -1 -28 -1 -37 0 -23 3 -24 -48 -2 -94 29 -61 11 -59 779
-60 385 0 718 3 739 8 57 11 81 44 89 117 2 22 -2 25 -33 27 -19 0 -40 2 -46
2 -7 1 -10 123 -10 396 -1 419 -2 436 -48 452 -12 4 -317 7 -679 8 -615 1
-660 0 -687 -17z m1304 -93 l26 -24 -2 -363 -3 -363 -635 0 -635 0 -3 361 -2
361 26 27 27 26 587 0 587 0 27 -25z"/>
<path d="M8389 10211 c-1 -4 -1 -9 0 -14 2 -14 -50 -28 -64 -17 -17 14 -52
-25 -37 -42 13 -16 -7 -48 -30 -48 -8 0 -14 -10 -14 -25 0 -17 6 -25 16 -25
21 0 45 -47 27 -53 -8 -3 -6 -11 7 -26 15 -16 22 -18 33 -9 17 14 65 -5 61
-24 -2 -7 9 -12 27 -12 18 0 29 5 27 12 -3 17 47 35 63 22 15 -12 51 23 40 39
-10 18 5 51 24 51 11 0 17 8 17 25 0 15 -6 25 -14 25 -23 0 -43 32 -30 48 14
17 -20 56 -37 42 -16 -13 -53 -1 -60 19 -5 15 -53 25 -56 12z m86 -96 c33 -32
32 -70 -1 -100 -31 -28 -62 -31 -103 -10 -72 37 -40 135 44 135 25 0 44 -8 60
-25z"/>
<path d="M8127 9214 c-1 -1 -20 -4 -42 -8 -147 -21 -288 -122 -350 -251 -26
-53 -29 -71 -30 -155 0 -88 3 -101 33 -163 43 -88 116 -159 208 -203 84 -40
129 -49 239 -48 135 2 252 50 344 143 60 60 86 108 108 201 16 67 0 170 -38
240 -67 126 -184 207 -339 236 -29 5 -129 12 -133 8z m-6 -134 c15 -14 -3 -30
-107 -93 -6 -3 -35 16 -64 42 l-54 48 75 36 74 36 30 -28 c16 -15 37 -34 46
-41z m-206 -93 l48 -44 -43 -56 c-23 -31 -43 -57 -45 -57 -1 0 -23 19 -50 43
-44 41 -47 45 -35 68 18 35 60 89 69 89 4 0 29 -19 56 -43z m322 -11 l47 -44
-29 -25 c-17 -14 -41 -34 -54 -46 -13 -12 -27 -21 -30 -21 -4 0 -33 24 -64 53
l-59 52 59 37 c32 21 63 38 70 38 6 0 33 -20 60 -44z m-165 -127 c45 -40 55
-53 45 -63 -6 -6 -32 -28 -56 -48 l-44 -37 -41 39 c-22 22 -45 40 -49 40 -4 0
-2 10 4 23 16 30 69 97 77 97 4 0 33 -23 64 -51z m325 -14 l32 -28 -21 -31
c-13 -17 -34 -43 -48 -59 l-25 -27 -60 54 -60 55 55 50 c53 48 56 49 75 32 11
-10 34 -31 52 -46z m163 -154 c0 -17 -37 -79 -61 -103 -17 -17 -20 -16 -61 22
-24 22 -46 40 -50 40 -15 0 -8 15 23 50 17 19 38 45 46 57 l15 23 44 -38 c24
-20 43 -43 44 -51z m-327 25 l59 -53 -49 -30 c-74 -47 -82 -47 -130 -5 -24 21
-43 42 -43 48 0 5 15 20 32 34 18 14 39 33 47 43 9 9 18 17 21 17 3 0 31 -24
63 -54z m185 -163 c26 -23 22 -28 -43 -61 -61 -31 -69 -30 -119 12 -46 38 -57
56 -33 57 6 0 35 15 62 33 l50 34 30 -28 c17 -15 40 -36 53 -47z"/>
<path d="M8544 9155 c-4 -9 12 -35 41 -67 27 -29 62 -82 79 -118 26 -56 31
-78 33 -158 4 -138 -37 -235 -138 -333 -47 -44 -170 -115 -215 -123 -12 -3
-39 -9 -60 -15 -54 -15 -230 -7 -277 12 -20 9 -40 16 -42 16 -16 0 -97 44
-139 74 -48 35 -70 38 -80 11 -9 -23 134 -120 209 -141 77 -21 138 -33 173
-33 l43 0 -2 -60 -2 -60 -102 0 c-106 0 -143 -12 -126 -39 8 -12 53 -14 253
-13 133 1 249 1 256 2 8 0 12 9 10 23 -3 21 -8 22 -118 27 l-114 5 1 54 c1 29
3 55 5 57 2 1 19 6 38 9 241 40 418 188 475 397 17 63 16 180 -2 242 -40 139
-175 295 -199 231z"/>
<path d="M9050 8983 c0 -19 -49 -36 -65 -23 -8 7 -17 4 -31 -11 -13 -15 -15
-23 -7 -26 16 -6 -4 -51 -25 -55 -23 -5 -23 -48 0 -48 22 0 41 -41 25 -52 -8
-4 -5 -14 7 -27 15 -16 22 -18 33 -9 16 13 68 -6 58 -22 -4 -6 6 -10 24 -10
16 0 34 6 38 13 12 20 44 29 58 17 15 -12 51 23 40 39 -11 18 5 51 24 51 13 0
19 8 19 25 0 17 -6 25 -19 25 -20 0 -33 29 -23 54 8 21 -25 49 -42 35 -15 -12
-65 6 -62 22 2 7 -9 13 -24 14 -18 1 -28 -3 -28 -12z m85 -88 c55 -54 11 -132
-67 -122 -43 6 -67 26 -74 62 -13 72 87 115 141 60z"/>
<path d="M3977 7995 c-11 -7 -25 -11 -33 -8 -10 3 -14 -3 -14 -20 0 -14 -7
-28 -16 -31 -15 -6 -15 -8 -1 -24 8 -9 17 -26 19 -37 2 -14 10 -19 26 -17 12
2 22 -2 22 -7 0 -6 9 -11 20 -11 11 0 20 5 20 11 0 7 10 9 25 7 24 -5 29 1 26
30 -1 7 5 15 14 18 8 3 15 12 15 19 0 7 -7 16 -15 19 -9 3 -15 14 -13 23 2 13
-4 18 -21 18 -14 0 -26 6 -29 13 -5 16 -22 15 -45 -3z"/>
<path d="M3357 7963 c-2 -4 -3 -20 -2 -36 2 -22 -3 -29 -24 -34 -14 -3 -39
-12 -55 -20 -26 -14 -30 -13 -56 12 l-27 26 -49 -46 -49 -46 26 -21 27 -20
-22 -48 c-19 -45 -24 -49 -60 -52 l-40 -3 -1 -57 c0 -33 4 -59 10 -59 5 -1 22
-1 37 -1 23 0 32 -7 52 -48 l25 -49 -29 -25 -29 -24 46 -38 c49 -41 73 -53 73
-35 0 26 44 32 95 12 45 -17 50 -22 49 -50 l-1 -31 72 0 71 0 0 31 c-1 29 3
33 51 51 l53 19 31 -21 30 -22 32 28 c17 16 37 35 45 42 13 11 11 17 -11 40
l-26 28 19 32 c11 18 17 32 14 32 -4 0 -1 6 5 14 7 8 26 13 46 11 37 -2 37 -2
37 60 0 65 0 65 -39 65 -35 0 -39 3 -60 48 l-22 47 27 23 27 24 -49 44 -50 44
-26 -25 -25 -24 -57 20 c-53 20 -56 23 -55 53 l2 31 -67 3 c-36 2 -68 -1 -71
-5z m160 -190 c122 -57 143 -211 41 -286 -48 -34 -77 -44 -133 -44 -229 0
-277 286 -57 342 53 14 103 10 149 -12z"/>
<path d="M8345 7956 c-55 -25 -110 -106 -83 -122 19 -12 299 -10 308 1 14 16
-15 71 -54 100 -43 33 -124 43 -171 21z"/>
<path d="M8004 7756 c-61 -29 -97 -64 -126 -119 -20 -40 -21 -56 -22 -305 -1
-255 0 -263 19 -268 11 -2 263 -3 560 -2 l540 3 -1 265 c-1 253 -2 267 -23
308 -30 58 -75 97 -139 122 -51 19 -75 20 -406 20 -348 -1 -353 -1 -402 -24z
m752 -119 c52 -27 66 -59 67 -156 l2 -86 -410 0 -409 0 1 68 c0 37 1 78 2 92
1 30 61 92 93 97 13 2 158 3 323 2 259 0 304 -2 331 -17z"/>
<path d="M5402 7528 c-16 -16 -15 -65 1 -71 9 -3 9 -7 1 -18 -35 -45 -15 -79
46 -79 37 0 39 -1 30 -24 -12 -32 5 -46 57 -46 41 0 44 -2 67 -47 31 -62 92
-123 153 -153 72 -37 179 -38 253 -3 64 31 138 104 165 162 17 40 20 41 66 41
39 0 49 4 54 20 4 12 1 27 -5 35 -11 13 -6 15 33 15 44 0 59 9 64 39 3 22 -17
52 -30 46 -7 -4 -3 1 7 9 23 19 28 43 15 68 -9 17 -36 18 -487 18 -359 0 -481
-3 -490 -12z"/>
<path d="M6910 7366 c0 -17 -40 -29 -55 -16 -16 13 -49 -16 -41 -36 10 -26 -3
-54 -25 -54 -14 0 -18 -6 -17 -25 1 -14 8 -25 14 -25 22 0 39 -30 27 -48 -8
-14 -5 -21 12 -34 13 -10 26 -13 31 -8 13 13 54 1 54 -16 0 -8 3 -14 8 -15 4
0 15 -2 25 -4 10 -2 21 3 24 11 9 24 40 36 62 25 14 -8 23 -6 37 10 14 16 15
22 5 28 -10 7 -10 12 0 30 8 11 21 21 30 21 23 0 17 42 -8 51 -25 9 -38 40
-21 50 9 6 8 13 -6 28 -14 16 -23 18 -37 10 -20 -10 -59 3 -59 21 0 6 -13 10
-30 10 -19 0 -30 -5 -30 -14z m99 -85 c10 -12 17 -31 16 -43 -1 -13 -3 -29 -4
-35 -1 -16 -54 -43 -84 -43 -70 0 -104 88 -49 130 33 27 94 22 121 -9z"/>
<path d="M7949 7010 c-14 -8 -17 -43 -10 -117 1 -9 21 -13 65 -13 73 0 80 6
82 65 1 64 -9 75 -69 75 -29 0 -59 -5 -68 -10z"/>
<path d="M8759 7010 c-14 -8 -17 -43 -10 -117 1 -9 21 -13 65 -13 73 0 80 6
82 65 1 64 -9 75 -69 75 -29 0 -59 -5 -68 -10z"/>
<path d="M4621 6822 c-6 -2 -11 -14 -11 -27 0 -16 -7 -25 -24 -29 -13 -3 -31
-8 -39 -12 -8 -3 -22 2 -31 11 -14 15 -18 14 -51 -12 -34 -27 -34 -28 -16 -46
17 -17 17 -21 2 -53 -12 -27 -21 -34 -43 -34 -24 0 -28 -4 -27 -27 3 -50 8
-60 33 -58 17 2 26 -5 38 -31 14 -31 14 -35 -3 -50 -19 -17 -20 -16 29 -58 20
-18 23 -18 40 -3 15 14 24 15 55 5 29 -9 37 -16 37 -35 0 -22 3 -24 48 -21 39
2 48 7 50 24 4 31 69 50 94 27 16 -14 20 -13 52 15 33 29 34 31 16 47 -16 14
-17 21 -7 43 15 36 14 35 40 37 18 1 22 8 25 43 3 38 1 42 -21 42 -17 0 -28 9
-40 34 -15 32 -15 35 3 51 18 16 17 18 -16 47 -32 28 -36 29 -52 15 -27 -24
-92 -3 -92 30 0 13 -6 23 -12 24 -7 0 -25 2 -40 3 -14 1 -31 0 -37 -2z m116
-142 c110 -66 57 -220 -76 -222 -42 0 -86 19 -115 51 -28 31 -29 98 -3 135 39
55 134 73 194 36z"/>
<path d="M8426 6762 c-5 -8 -19 -67 -30 -122 -21 -114 -49 -217 -61 -226 -10
-7 -135 -11 -395 -11 -399 0 -410 -2 -410 -45 0 -18 61 -310 66 -316 1 -2 20
-5 41 -7 76 -6 136 -50 151 -109 l8 -31 188 -3 c124 -2 185 1 181 8 -11 18 28
81 66 107 20 13 55 26 77 28 54 4 58 8 67 57 9 50 7 38 40 193 15 66 28 129
31 140 2 11 7 34 11 50 8 36 6 24 22 110 19 99 20 100 88 101 32 1 64 2 71 3
7 1 12 16 12 41 l0 40 -109 0 c-61 0 -112 -4 -115 -8z m-354 -453 c104 -53
127 -182 45 -260 -59 -57 -167 -68 -241 -25 -52 30 -62 42 -79 92 -26 77 17
165 99 199 44 19 133 15 176 -6z"/>
<path d="M7960 6290 c-8 -5 -15 -26 -16 -47 -1 -21 -3 -41 -3 -44 -1 -3 -19
-5 -41 -4 -51 2 -80 -16 -64 -42 8 -12 24 -18 52 -18 48 -1 56 -7 58 -43 2
-46 3 -50 24 -55 26 -7 44 17 44 61 l1 36 48 1 c49 1 70 16 60 42 -6 15 -7 15
-65 17 -42 1 -43 2 -45 36 -2 50 -1 48 -21 59 -11 6 -24 6 -32 1z"/>
<path d="M7574 5974 c-39 -20 -53 -44 -54 -85 0 -26 7 -44 26 -63 28 -27 31
-28 64 -28 56 0 71 4 94 25 88 77 -23 206 -130 151z"/>
<path d="M8284 5980 c-29 -11 -64 -58 -64 -86 0 -77 76 -118 166 -89 25 8 54
54 54 87 0 64 -87 113 -156 88z"/>
<path d="M5440 4173 c-29 -12 -50 -46 -50 -84 0 -30 41 -246 65 -339 23 -92
56 -266 60 -309 2 -33 -2 -68 -10 -86 l-13 -30 -44 95 c-43 89 -60 140 -138
385 -42 134 -70 188 -104 200 -22 8 -31 5 -54 -18 -41 -42 -37 -118 16 -272
164 -477 180 -539 146 -552 -31 -12 -84 67 -225 335 -24 46 -65 107 -90 135
-41 45 -50 50 -66 41 -14 -9 -18 -24 -17 -71 1 -52 10 -78 81 -228 86 -180
175 -397 188 -455 4 -19 9 -73 10 -120 3 -92 14 -271 20 -298 1 -9 6 -39 9
-66 11 -79 33 -176 55 -239 35 -101 39 -206 26 -749 -4 -168 -4 -335 -1 -370
l7 -64 363 0 362 0 -18 65 c-22 80 -62 250 -73 316 -3 17 -10 55 -15 85 -5 30
-12 73 -15 95 -3 22 -7 54 -10 70 -30 190 -39 461 -18 503 26 49 215 205 368
305 69 44 127 100 235 225 30 35 105 104 167 153 109 87 163 146 163 180 0 8
-12 26 -26 40 -21 20 -35 24 -87 24 -118 -1 -226 -55 -298 -151 -72 -95 -201
-150 -276 -119 -71 30 -138 298 -154 620 -5 105 -11 197 -14 205 -2 8 -6 34
-9 58 -4 23 -9 61 -12 85 -6 44 -7 50 -19 137 -4 30 -9 58 -11 61 -2 3 -6 21
-9 40 -16 96 -40 122 -94 99 -41 -17 -59 -55 -56 -125 13 -396 16 -665 6 -665
-12 0 -40 59 -47 100 -24 130 -146 605 -173 674 -28 71 -59 95 -101 79z"/>
<path d="M7163 4170 c-37 -15 -52 -62 -39 -120 3 -14 8 -36 11 -50 6 -29 53
-266 59 -295 3 -11 9 -40 15 -65 5 -25 12 -56 15 -70 2 -14 9 -46 14 -72 11
-55 8 -129 -6 -155 -9 -15 -18 -3 -55 77 -42 89 -57 131 -137 385 -44 139 -69
188 -103 200 -23 8 -31 5 -54 -17 -45 -46 -43 -100 12 -268 26 -80 54 -157 61
-172 8 -15 16 -35 17 -45 2 -10 7 -25 10 -33 17 -43 77 -246 77 -261 0 -27
-11 -49 -24 -49 -27 0 -101 112 -188 285 -23 44 -58 105 -78 135 -84 122 -125
130 -125 24 1 -53 9 -77 77 -219 83 -174 112 -240 159 -367 40 -109 39 -105
44 -233 7 -197 20 -317 45 -445 14 -70 13 -63 39 -144 36 -114 37 -158 26
-814 -4 -199 -3 -363 2 -363 4 -1 169 -3 366 -4 246 -1 357 2 357 9 0 6 -7 36
-16 66 -17 64 -19 69 -34 135 -13 57 -18 80 -25 115 -3 14 -7 36 -10 50 -6 27
-9 50 -20 120 -4 25 -9 52 -10 61 -2 9 -6 40 -10 70 -3 30 -8 65 -10 79 -18
116 -26 384 -13 419 9 26 45 63 128 133 l55 46 30 -21 c179 -124 280 -212 287
-249 8 -44 -3 -268 -18 -378 -26 -185 -53 -326 -99 -520 -2 -8 -12 -43 -23
-78 l-20 -62 367 2 366 3 -1 245 c-1 135 -3 342 -5 460 -4 240 3 317 32 399
23 64 25 72 43 166 22 114 32 210 40 400 6 138 28 199 181 510 91 185 117 263
96 294 -27 41 -118 -53 -197 -204 -50 -95 -128 -216 -158 -244 -31 -30 -56
-22 -56 18 0 16 30 114 66 218 36 103 81 231 99 284 41 118 46 154 28 199 -35
86 -101 60 -146 -57 -9 -23 -38 -108 -65 -190 -46 -138 -123 -317 -143 -328
-24 -15 -33 98 -14 175 3 14 8 36 11 50 3 14 7 33 10 42 5 16 10 39 20 86 5
25 53 245 60 277 3 11 7 40 10 65 5 39 3 48 -17 66 -50 45 -95 30 -124 -40
-16 -38 -138 -470 -155 -546 -17 -78 -41 -151 -58 -178 -13 -20 -17 -21 -24
-8 -9 17 -7 107 17 621 1 22 -2 51 -7 66 -10 29 -56 59 -84 54 -10 -2 -22 -4
-26 -4 -19 -2 -67 -229 -83 -396 -4 -38 -9 -78 -11 -89 -2 -10 -6 -73 -9 -140
-10 -215 -23 -298 -71 -447 -13 -42 -18 -46 -42 -44 -45 4 -68 21 -90 68 -16
34 -51 137 -57 167 -2 10 -18 85 -20 90 -1 3 -5 30 -9 60 -5 30 -10 64 -12 75
-2 11 -6 81 -9 155 -3 74 -7 149 -9 165 -2 17 -7 64 -11 105 -4 41 -9 82 -10
91 -2 9 -6 40 -10 70 -4 30 -11 77 -17 104 -5 28 -12 64 -15 80 -6 40 -24 76
-44 88 -23 15 -71 -7 -91 -41 -17 -29 -16 -26 -3 -342 12 -277 13 -397 5 -409
-14 -24 -59 80 -76 176 -20 116 -154 604 -175 640 -26 42 -45 49 -86 33z"/>
<path d="M3851 4014 c-12 -15 -30 -59 -42 -98 -11 -39 -24 -84 -29 -100 -9
-25 -6 -33 23 -65 18 -20 48 -59 67 -86 l34 -49 8 29 c4 16 22 97 39 181 l32
151 -23 32 c-31 41 -79 43 -109 5z"/>
<path d="M4085 3782 c-4 -9 -29 -81 -55 -159 l-48 -141 47 -78 c25 -42 51 -79
56 -81 6 -1 22 32 37 75 14 42 47 136 72 207 l46 130 -35 7 c-19 4 -52 19 -74
32 -36 23 -40 24 -46 8z"/>
<path d="M4358 3520 c-42 -48 -63 -81 -145 -226 l-39 -70 51 -57 51 -56 87
177 c91 188 105 228 87 261 -17 33 -45 25 -92 -29z"/>
</g>
</svg>
