<?xml version="1.0" standalone="no"?>
<!DOCTYPE svg PUBLIC "-//W3C//DTD SVG 20010904//EN"
 "http://www.w3.org/TR/2001/REC-SVG-20010904/DTD/svg10.dtd">
<svg version="1.0" xmlns="http://www.w3.org/2000/svg"
 width="1200.000000pt" height="1200.000000pt" viewBox="0 0 1200.000000 1200.000000"
 preserveAspectRatio="xMidYMid meet">
<metadata>
Created by potrace 1.16, written by Peter Selinger 2001-2019
</metadata>
<g transform="translate(0.000000,1200.000000) scale(0.100000,-0.100000)"
fill="#000000" stroke="none">
<path d="M2753 8146 c-108 -21 -220 -61 -308 -111 -43 -25 -81 -45 -83 -45 -3
0 -29 -21 -58 -46 -96 -82 -174 -200 -220 -334 -29 -85 -27 -301 4 -390 77
-216 261 -394 501 -480 94 -34 242 -59 312 -53 43 5 47 3 82 -40 44 -54 147
-124 249 -171 86 -40 251 -99 246 -89 -69 134 -102 242 -102 332 l-1 74 60 36
c33 19 98 73 145 120 97 99 170 219 195 322 19 81 19 226 0 306 -17 70 -78
186 -142 268 -98 125 -287 242 -463 286 -109 27 -315 34 -417 15z m647 -450
c6 -8 10 -25 8 -38 l-3 -23 -480 0 -480 0 -3 23 c-8 53 -16 52 483 52 391 0
464 -2 475 -14z m8 -264 c8 -53 16 -52 -482 -52 -346 0 -465 3 -474 12 -13 13
-16 50 -5 61 3 4 221 6 482 5 l476 -3 3 -23z m0 -246 c2 -16 -2 -32 -10 -37
-15 -10 -728 -12 -752 -3 -16 6 -22 54 -9 67 4 4 178 6 387 5 l381 -3 3 -29z"/>
<path d="M6797 7916 c-49 -18 -49 -18 -41 -51 5 -22 10 -25 28 -20 39 14 88
11 99 -6 19 -30 -4 -72 -74 -140 -43 -41 -69 -74 -69 -88 0 -20 4 -21 120 -21
l120 0 0 35 0 35 -57 0 -57 0 41 43 c51 53 63 76 63 124 0 76 -88 121 -173 89z"/>
<path d="M7073 7816 c-35 -57 -63 -113 -63 -125 0 -20 5 -21 75 -21 l75 0 0
-40 0 -40 40 0 40 0 0 40 c0 33 3 40 20 40 15 0 20 7 20 26 0 17 -6 28 -20 31
-18 5 -20 14 -20 99 l0 94 -52 0 -53 0 -62 -104z"/>
<path d="M7420 7430 l0 -140 30 0 30 0 0 64 c0 44 5 67 15 76 28 23 45 -5 45
-76 l0 -64 30 0 30 0 0 78 c0 69 -3 81 -23 100 -26 24 -48 27 -78 12 -18 -10
-19 -7 -19 40 0 49 -1 50 -30 50 l-30 0 0 -140z"/>
<path d="M3985 6423 c-244 -52 -452 -214 -564 -438 -48 -98 -55 -122 -91 -342
-50 -300 -93 -425 -205 -603 -170 -267 -190 -534 -52 -673 179 -178 561 -179
827 -2 39 26 85 66 101 88 41 56 39 102 -11 228 -47 117 -90 260 -90 297 0 23
3 21 30 -22 40 -63 111 -132 187 -184 67 -45 218 -122 240 -122 8 0 18 -11 23
-24 19 -51 76 -69 129 -41 48 24 54 63 16 100 -29 30 -74 33 -115 8 -28 -16
-31 -16 -93 11 -112 48 -189 99 -273 181 -44 44 -90 100 -102 124 l-21 45 -69
1 c-249 5 -382 296 -220 480 21 24 54 53 73 65 31 19 35 27 35 63 0 23 7 83
15 132 40 243 126 430 269 582 32 35 52 63 45 62 -8 0 -45 -7 -84 -16z"/>
<path d="M4568 6400 c-247 -35 -444 -204 -532 -456 -24 -69 -50 -187 -60 -276
-5 -41 -3 -49 15 -59 11 -6 38 -26 59 -45 21 -19 40 -31 43 -27 2 4 8 31 11
58 13 93 26 120 67 147 41 27 234 96 243 87 3 -3 -5 -33 -18 -66 -37 -95 -50
-161 -36 -178 7 -8 18 -15 26 -15 24 0 177 84 294 161 109 72 153 99 163 99
15 0 14 -38 -4 -110 -21 -88 -24 -120 -11 -120 13 0 99 57 183 121 43 32 80
59 83 59 3 0 6 -21 6 -47 0 -66 11 -124 22 -117 4 3 24 37 43 74 79 157 117
337 95 445 -10 51 -19 67 -59 105 -56 55 -170 113 -275 140 -92 23 -263 33
-358 20z"/>
<path d="M4535 5403 c-65 -8 -73 -13 -85 -49 -14 -41 -7 -77 20 -104 44 -44
90 -5 90 76 0 29 5 56 10 59 12 7 14 26 3 24 -5 -1 -21 -4 -38 -6z"/>
<path d="M4938 5403 c-47 -5 -68 -33 -68 -90 0 -30 6 -49 20 -63 24 -24 34
-25 54 -4 17 16 22 35 29 94 2 19 7 43 12 53 4 9 3 16 -1 15 -5 -1 -26 -3 -46
-5z"/>
<path d="M6496 3918 c-8 -13 -111 -230 -229 -483 -118 -253 -237 -507 -265
-565 -97 -203 -192 -412 -192 -421 0 -5 -335 -9 -835 -9 l-835 0 0 -50 0 -50
1688 2 1687 3 6 35 c4 19 7 31 8 27 6 -37 78 106 376 744 246 528 340 739 334
750 -19 38 -52 39 -900 39 l-829 0 -14 -22z m604 -624 c88 -53 80 -202 -13
-251 -120 -62 -241 64 -179 187 35 71 128 101 192 64z"/>
</g>
</svg>
